<svg width="40" height="40" viewBox="0 0 40 40" fill="none" xmlns="http://www.w3.org/2000/svg">
<path d="M15.3846 0C6.99538 0 0 5.76923 0 13.0769C0 16.8154 2.04615 20.0738 4.95231 22.4523C4.76466 23.7161 4.25085 24.9092 3.46154 25.9138C3.13942 26.3261 2.8028 26.7269 2.45231 27.1154C2.27087 27.3066 2.10952 27.5159 1.97077 27.74C1.88308 27.8831 1.74615 28.0431 1.68308 28.3662C1.61846 28.6877 1.70615 29.2169 1.97077 29.6154L2.16308 29.9523L2.54769 30.1446C3.89385 30.8169 5.34769 30.6985 6.68308 30.3369C8.01692 29.9738 9.3 29.3523 10.5292 28.7015C11.7569 28.0523 12.9246 27.3723 13.8462 26.8754C13.9754 26.8062 14.0585 26.7892 14.1831 26.7308C16.6092 30.0662 21.0523 32.3077 26.0092 32.3077C26.0569 32.3138 26.1015 32.3077 26.1538 32.3077C28.1538 32.3077 34.6154 38.9138 38.4615 36.2985C38.6154 35.6846 35.08 34.1446 34.9031 29.5677C37.9138 27.44 39.8569 24.2754 39.8569 20.7692C39.8569 15.5815 35.74 11.2954 30.2415 9.76C28.5015 4.09846 22.4523 0 15.3846 0ZM15.3846 3.07692C22.38 3.07692 27.6923 7.76923 27.6923 13.0769C27.6923 18.3846 22.38 23.0769 15.3846 23.0769C14.1354 23.0769 13.4185 23.5877 12.4031 24.1354C11.3877 24.6815 10.2231 25.36 9.08615 25.9615C8.10154 26.4815 7.16308 26.8815 6.29846 27.1631C7.14 25.9477 8.01846 24.3492 8.17231 22.1154L8.22154 21.2492L7.5 20.7215C4.75846 18.8 3.07692 16.0354 3.07692 13.0769C3.07692 7.76923 8.38923 3.07692 15.3846 3.07692Z" fill="#0015D4"/>
</svg>
