<svg width="20" height="20" viewBox="0 0 20 20" fill="none" xmlns="http://www.w3.org/2000/svg">
<g clip-path="url(#clip0_146_1032)">
<path fill-rule="evenodd" clip-rule="evenodd" d="M8.80866 0.735923C8.94207 0.296808 9.3258 0 9.7578 0C10.1898 0 10.5723 0.296808 10.7057 0.735923L12.379 6.23568C12.4286 6.39696 12.5251 6.53791 12.6535 6.6382C12.7831 6.73849 12.9394 6.79272 13.0982 6.79272L18.5198 6.78999C18.9518 6.78999 19.3342 7.0868 19.4676 7.52592C19.601 7.96368 19.4549 8.44347 19.1055 8.71453L14.7194 12.1122C14.5898 12.2125 14.4933 12.3535 14.4437 12.5147C14.3942 12.6774 14.3954 12.8522 14.4437 13.0135L16.1209 18.5119C16.2543 18.9511 16.1082 19.4308 15.7588 19.7019C15.4094 19.9729 14.9354 19.9729 14.586 19.7019L10.2025 16.3014C10.0729 16.2012 9.9179 16.147 9.7578 16.147C9.59771 16.147 9.44269 16.2012 9.31309 16.3014L4.92831 19.7019C4.5789 19.9729 4.1062 19.9729 3.75679 19.7019C3.40611 19.4308 3.26002 18.9511 3.39471 18.5119L5.07061 13.0135C5.12017 12.8522 5.12017 12.6774 5.07061 12.5147C5.02233 12.3535 4.92576 12.2125 4.79616 12.1122L0.410098 8.71453C0.0606868 8.44347 -0.086715 7.96368 0.0466967 7.52592C0.181379 7.0868 0.563838 6.78999 0.995837 6.78999L6.41615 6.79272C6.57625 6.79272 6.73254 6.73849 6.86087 6.6382C6.99047 6.53791 7.08703 6.39696 7.13532 6.23568L8.80866 0.735923Z" fill="#F6BB06"/>
</g>
<defs>
<clipPath id="clip0_146_1032">
<rect width="20" height="20" fill="white"/>
</clipPath>
</defs>
</svg>
